<?xml version="1.0" encoding="utf-8"?>
<!-- Aset milik PT Kawan Menengah Atas (berlisensi). Versi bersih untuk tema
     musiman Merdeka: lapisan TEXTS ("Dirgahayu Indonesia 17 August") dibuang
     supaya teksnya pakai dari tema (angka "ke-81" otomatis). Hanya latar terang
     + gelombang merah + kepala elang (ruang negatif putih). -->
<svg version="1.1" xmlns="http://www.w3.org/2000/svg" xmlns:xlink="http://www.w3.org/1999/xlink" x="0px" y="0px"
	 viewBox="0 0 500 500" xml:space="preserve">
<!-- Latar sengaja dibuang (transparan) supaya elang (ruang negatif) ikut warna
     permukaan terang di belakangnya, menyatu mulus tanpa "kotak" latar. -->
<g id="OBJECTS">
	<g>
		<path style="fill:#E33D3D;" d="M-0.08,500.08c5.747-16.247,32.58-57.579,82.414-67.913c49.834-10.334,96.834-7,120.5-29.667
			S214,359.667,214,359.667s0.5,17.332-23.5,21.666c5-9.666,9.5-28,4-47.333c-2.333,15.333-8.5,24.166-22.167,29.333
			c4.167-19.666-1.001-45.5-20.833-56.333c-0.667,8.333-3.833,16.833-13.833,20c4-12.333,0.5-25.5-13.834-23.5
			c-14.333,2-30,5.667-48-2s-15.501-25.501-11.167-30.167c0.667,4.167,11.5,12.501,24.834,7.834c13.333-4.667,20.666-12.5,24-13.5
			c-11-1-16.667-6.833-34.334-10.5S40.667,254.333,35.333,271c-6.667-16.167-2.209-32.181,12.5-44.5
			c13.333-11.167,32.833-9.833,38-9.5c-5.5-4-5.334-16.334-1.167-19.667C86,201.5,88.5,208.166,94.5,209.833
			c-1.166-8.666,1-35.5,41.333-42.5s84.834-15.833,94-41.333c9.834,11.5,6,30.333,0,37.833
			c20.167-7.667,32.832-18.334,33.667-20.167c4.167,11.5,2.5,26.334-9.334,35.334c20.168-1,42.834-4.334,53-12.667
			c4.168,12.5-2.666,26.001-17.832,31.667c14.666,8,24.166,12.5,35.832,18.5c11.668,6,41.001,13.333,63.168-3.667
			c22.166-17,12.666-46.667,0-58.667c-12.668-12-28.667-36.166-19-65.666C379,59,413.833,46.499,440,41.833S492.666,24.333,500,0
			H-0.08V500.08z"/>
		<linearGradient id="mgG1" gradientUnits="userSpaceOnUse" x1="74.4913" y1="173.3489" x2="87.9915" y2="361.3495">
			<stop  offset="0" style="stop-color:#E33D3D"/>
			<stop  offset="0.2876" style="stop-color:#E03C3C"/>
			<stop  offset="0.5149" style="stop-color:#D63939"/>
			<stop  offset="0.7216" style="stop-color:#C53535"/>
			<stop  offset="0.915" style="stop-color:#AE2F2F"/>
			<stop  offset="1" style="stop-color:#A12B2B"/>
		</linearGradient>
		<path style="fill:url(#mgG1);" d="M55.279,170
			c-15.29,11.921-35.728,23.303-55.359,27.953v143.424c24.253-16.438,59.104-17.475,92.379-0.49
			c33.43,17.064,63.801,21.321,81.356,8.148c-0.316-16.463-6.885-33.694-22.155-42.035c-0.667,8.333-3.833,16.833-13.833,20
			c4-12.333,0.5-25.5-13.834-23.5c-14.333,2-30,5.667-48-2s-15.501-25.501-11.167-30.167c0.667,4.167,11.5,12.501,24.834,7.834
			c13.333-4.667,20.666-12.5,24-13.5c-11-1-16.667-6.833-34.334-10.5S40.667,254.333,35.333,271
			c-6.667-16.167-2.209-32.181,12.5-44.5c13.333-11.167,32.833-9.833,38-9.5c-5.5-4-5.334-16.334-1.167-19.667
			C86,201.5,88.5,208.166,94.5,209.833c-1.166-8.666,1-35.5,41.333-42.5c2.648-0.46,5.313-0.928,7.985-1.407
			C118.38,146.099,79.402,151.192,55.279,170z"/>
		<linearGradient id="mgG2" gradientUnits="userSpaceOnUse" x1="410.8644" y1="271.0965" x2="342.8621" y2="176.5932">
			<stop  offset="0" style="stop-color:#E33D3D"/>
			<stop  offset="0.4417" style="stop-color:#E13C3C"/>
			<stop  offset="0.6298" style="stop-color:#DA3A3A"/>
			<stop  offset="0.7698" style="stop-color:#CD3737"/>
			<stop  offset="0.8851" style="stop-color:#BC3232"/>
			<stop  offset="0.9854" style="stop-color:#A52C2C"/>
			<stop  offset="1" style="stop-color:#A12B2B"/>
		</linearGradient>
		<path style="fill:url(#mgG2);" d="M317,199.563
			c-4.764,2.989-10.061,4.457-15.488,4.918c8.479,4.4,15.545,7.849,23.654,12.02c11.668,6,41.001,13.333,63.168-3.667
			c16.421-12.594,15.457-32.134,8.708-46.298C349.796,147.546,338.336,186.172,317,199.563z"/>
		<linearGradient id="mgG3" gradientUnits="userSpaceOnUse" x1="111.5531" y1="357.8685" x2="22.5531" y2="492.8687">
			<stop  offset="0" style="stop-color:#E33D3D"/>
			<stop  offset="0.2876" style="stop-color:#E03C3C"/>
			<stop  offset="0.5149" style="stop-color:#D63939"/>
			<stop  offset="0.7216" style="stop-color:#C53535"/>
			<stop  offset="0.915" style="stop-color:#AE2F2F"/>
			<stop  offset="1" style="stop-color:#A12B2B"/>
		</linearGradient>
		<path style="fill:url(#mgG3);" d="M92.299,340.887
			c-33.275-16.984-68.125-15.947-92.379,0.49V500.08c5.747-16.247,32.58-57.579,82.414-67.913c49.834-10.334,96.834-7,120.5-29.667
			S214,359.667,214,359.667s0.5,17.332-23.5,21.666c5-9.666,9.5-28,4-47.333c-2.333,15.333-8.5,24.166-22.167,29.333
			c0.959-4.524,1.416-9.377,1.321-14.298C156.1,362.208,125.729,357.95,92.299,340.887z"/>
		<linearGradient id="mgG4" gradientUnits="userSpaceOnUse" x1="267.0497" y1="-62.6109" x2="212.0501" y2="138.8885">
			<stop  offset="0" style="stop-color:#E33D3D"/>
			<stop  offset="0.4417" style="stop-color:#E13C3C"/>
			<stop  offset="0.6298" style="stop-color:#DA3A3A"/>
			<stop  offset="0.7698" style="stop-color:#CD3737"/>
			<stop  offset="0.8851" style="stop-color:#BC3232"/>
			<stop  offset="0.9854" style="stop-color:#A52C2C"/>
			<stop  offset="1" style="stop-color:#A12B2B"/>
		</linearGradient>
		<path style="fill:url(#mgG4);" d="M-0.08,0v78.793
			C36.399,101.547,68.514,88.576,94,64c28-27,69-42,112-16.5s47,36.5,86,31c32.417-4.571,52.746-26.45,91.42-11.725
			c15.207-14.402,38.059-21.64,56.58-24.942c26.167-4.666,52.666-17.5,60-41.833H-0.08z"/>
		<linearGradient id="mgG5" gradientUnits="userSpaceOnUse" x1="216.4032" y1="68.2143" x2="163.9035" y2="227.7141">
			<stop  offset="0" style="stop-color:#E33D3D"/>
			<stop  offset="0.4417" style="stop-color:#E13C3C"/>
			<stop  offset="0.6298" style="stop-color:#DA3A3A"/>
			<stop  offset="0.7698" style="stop-color:#CD3737"/>
			<stop  offset="0.8851" style="stop-color:#BC3232"/>
			<stop  offset="0.9854" style="stop-color:#A52C2C"/>
			<stop  offset="1" style="stop-color:#A12B2B"/>
		</linearGradient>
		<path style="fill:url(#mgG5);" d="M292,78.5c-39,5.5-43-5.5-86-31
			S122,37,94,64C68.514,88.576,36.399,101.547-0.08,78.793v119.16c19.631-4.65,40.069-16.032,55.359-27.953
			c24.123-18.808,63.101-23.901,88.54-4.074c38.038-6.825,77.45-16.1,86.015-39.926c9.834,11.5,6,30.333,0,37.833
			c20.167-7.667,32.832-18.334,33.667-20.167c4.167,11.5,2.5,26.334-9.334,35.334c20.168-1,42.834-4.334,53-12.667
			c4.168,12.5-2.666,26.001-17.832,31.667c4.471,2.439,8.459,4.55,12.178,6.48c5.428-0.461,10.725-1.929,15.488-4.918
			c21.336-13.391,32.796-52.017,80.042-33.027c-2.361-4.956-5.425-9.259-8.708-12.369c-12.668-12-28.667-36.166-19-65.666
			c2.824-8.62,7.808-15.779,14.086-21.725C344.746,52.05,324.417,73.929,292,78.5z"/>
	</g>
</g>
</svg>
